<svg width="32" height="32" viewBox="0 0 32 32" fill="none" xmlns="http://www.w3.org/2000/svg">
<path d="M21.3333 2.66669H10.6667C6.25466 2.66669 2.66666 6.25469 2.66666 10.6667V28C2.66666 28.3536 2.80713 28.6928 3.05718 28.9428C3.30723 29.1929 3.64637 29.3334 3.99999 29.3334H21.3333C25.7453 29.3334 29.3333 25.7454 29.3333 21.3334V10.6667C29.3333 6.25469 25.7453 2.66669 21.3333 2.66669ZM26.6667 21.3334C26.6667 24.2747 24.2747 26.6667 21.3333 26.6667H5.33332V10.6667C5.33332 7.72535 7.72532 5.33335 10.6667 5.33335H21.3333C24.2747 5.33335 26.6667 7.72535 26.6667 10.6667V21.3334Z" fill="black"/>
<path d="M17.3333 9.33331H14.6667V14.6666H9.33334V17.3333H14.6667V22.6666H17.3333V17.3333H22.6667V14.6666H17.3333V9.33331Z" fill="black"/>
</svg>
