<svg width="32" height="32" viewBox="0 0 32 32" fill="none" xmlns="http://www.w3.org/2000/svg">
<path fill-rule="evenodd" clip-rule="evenodd" d="M20.1134 6.47069C20.2718 5.87784 20.5908 5.34023 21.0352 4.91702C21.4796 4.49382 22.0321 4.20145 22.632 4.07209C23.2319 3.94274 23.8558 3.98142 24.4351 4.18388C25.0144 4.38634 25.5266 4.74472 25.9153 5.21957C26.304 5.69442 26.5542 6.26732 26.6382 6.8752C26.7222 7.48308 26.6369 8.10235 26.3916 8.66485C26.1463 9.22734 25.7505 9.71124 25.2479 10.0633C24.7452 10.4153 24.1552 10.6218 23.5427 10.66C23.8464 11.5185 24.0011 12.4227 24 13.3334V21.3334H25.3334C26.0667 21.3334 26.6667 21.9334 26.6667 22.6667C26.6667 23.4 26.0667 24 25.3334 24H20V25.3334C20 26.3942 19.5786 27.4116 18.8285 28.1618C18.0783 28.9119 17.0609 29.3334 16 29.3334C14.9392 29.3334 13.9218 28.9119 13.1716 28.1618C12.4215 27.4116 12 26.3942 12 25.3334V24H6.66671C5.93337 24 5.33337 23.4 5.33337 22.6667C5.33337 21.9334 5.93337 21.3334 6.66671 21.3334H8.00004V13.3334C8.00028 11.4427 8.66989 9.61323 9.89017 8.16915C11.1105 6.72506 12.8026 5.75965 14.6667 5.44402V4.00002C14.6667 3.6464 14.8072 3.30726 15.0572 3.05721C15.3073 2.80716 15.6464 2.66669 16 2.66669C16.3537 2.66669 16.6928 2.80716 16.9429 3.05721C17.1929 3.30726 17.3334 3.6464 17.3334 4.00002V5.44402C18.3162 5.60893 19.2593 5.9572 20.1134 6.47069ZM16 26.6667C16.3537 26.6667 16.6928 26.5262 16.9429 26.2762C17.1929 26.0261 17.3334 25.687 17.3334 25.3334V24H14.6667V25.3334C14.6667 25.687 14.8072 26.0261 15.0572 26.2762C15.3073 26.5262 15.6464 26.6667 16 26.6667ZM10.6667 21.3334H21.3334V13.3334C21.3334 11.9189 20.7715 10.5623 19.7713 9.56212C18.7711 8.56192 17.4145 8.00002 16 8.00002C14.5856 8.00002 13.229 8.56192 12.2288 9.56212C11.2286 10.5623 10.6667 11.9189 10.6667 13.3334V21.3334Z" fill="black"/>
</svg>
