<svg width="32" height="32" viewBox="0 0 32 32" fill="none" xmlns="http://www.w3.org/2000/svg">
<path d="M10.2 3C9.08609 3 8.0178 3.4425 7.23015 4.23015C6.4425 5.0178 6 6.08609 6 7.2V28C6.00019 28.184 6.05117 28.3645 6.14732 28.5214C6.24346 28.6783 6.38106 28.8057 6.54494 28.8894C6.70882 28.9732 6.89264 29.0101 7.07615 28.9961C7.25965 28.982 7.43574 28.9177 7.585 28.81L16 22.735L24.415 28.812C24.5644 28.9198 24.7407 28.9842 24.9244 28.9981C25.108 29.012 25.292 28.975 25.456 28.891C25.6199 28.807 25.7575 28.6793 25.8535 28.5221C25.9495 28.3649 26.0002 28.1842 26 28V7.2C26 6.08609 25.5575 5.0178 24.7698 4.23015C23.9822 3.4425 22.9139 3 21.8 3H10.2Z" fill="#66BB6A"/>
</svg>
