<svg width="24" height="24" viewBox="0 0 24 24" fill="none" xmlns="http://www.w3.org/2000/svg">
<path d="M18 22C17.7167 22 17.4793 21.904 17.288 21.712C17.096 21.5207 17 21.2833 17 21V14H16C15.45 14 14.9793 13.804 14.588 13.412C14.196 13.0207 14 12.55 14 12V7C14 5.61667 14.4877 4.43767 15.463 3.463C16.4377 2.48767 17.6167 2 19 2V21C19 21.2833 18.904 21.5207 18.712 21.712C18.5207 21.904 18.2833 22 18 22ZM8 22C7.71667 22 7.479 21.904 7.287 21.712C7.09567 21.5207 7 21.2833 7 21V12.85C6.15 12.6167 5.43767 12.15 4.863 11.45C4.28767 10.75 4 9.93333 4 9V3C4 2.71667 4.09567 2.479 4.287 2.287C4.479 2.09567 4.71667 2 5 2C5.28333 2 5.521 2.09567 5.713 2.287C5.90433 2.479 6 2.71667 6 3V9H7V3C7 2.71667 7.09567 2.479 7.287 2.287C7.479 2.09567 7.71667 2 8 2C8.28333 2 8.521 2.09567 8.713 2.287C8.90433 2.479 9 2.71667 9 3V9H10V3C10 2.71667 10.096 2.479 10.288 2.287C10.4793 2.09567 10.7167 2 11 2C11.2833 2 11.521 2.09567 11.713 2.287C11.9043 2.479 12 2.71667 12 3V9C12 9.93333 11.7123 10.75 11.137 11.45C10.5623 12.15 9.85 12.6167 9 12.85V21C9 21.2833 8.90433 21.5207 8.713 21.712C8.521 21.904 8.28333 22 8 22Z" fill="#848484"/>
</svg>
