<svg width="32" height="32" viewBox="0 0 32 32" fill="none" xmlns="http://www.w3.org/2000/svg">
<path d="M6.7 27.7C6.65432 27.8956 6.6535 28.099 6.6976 28.2949C6.7417 28.4908 6.82957 28.6742 6.95464 28.8314C7.07971 28.9885 7.23872 29.1153 7.41976 29.2022C7.6008 29.2892 7.79917 29.334 8 29.3334C8.26338 29.3334 8.52087 29.2555 8.74 29.1094L16 24.2694L23.26 29.1094C23.4871 29.2601 23.755 29.3378 24.0275 29.3318C24.3001 29.3258 24.5642 29.2365 24.7845 29.0759C25.0048 28.9153 25.1706 28.6911 25.2597 28.4334C25.3487 28.1758 25.3568 27.897 25.2827 27.6347L22.844 19.1014L28.892 13.6587C29.0857 13.4843 29.224 13.2569 29.2899 13.0047C29.3557 12.7525 29.3462 12.4865 29.2625 12.2397C29.1788 11.9928 29.0246 11.7759 28.8189 11.6158C28.6133 11.4557 28.3652 11.3593 28.1053 11.3387L20.504 10.7334L17.2147 3.45202C17.1099 3.2175 16.9395 3.01831 16.7241 2.8785C16.5086 2.73868 16.2573 2.6642 16.0004 2.66406C15.7436 2.66392 15.4922 2.73812 15.2766 2.8777C15.061 3.01728 14.8903 3.21628 14.7853 3.45069L11.496 10.7334L3.89467 11.3374C3.63927 11.3576 3.39512 11.451 3.19141 11.6063C2.9877 11.7617 2.83306 11.9724 2.74599 12.2134C2.65892 12.4543 2.64312 12.7153 2.70046 12.965C2.7578 13.2147 2.88587 13.4425 3.06933 13.6214L8.688 19.0974L6.7 27.7ZM16 7.23869L18.7227 13.2667L19.5067 13.3294H19.508L24.804 13.7494L20.4427 17.6747L20.4413 17.6774L19.824 18.232L20.052 19.028V19.032L21.7227 24.8787L16 21.064V7.23869Z" fill="#FFD08A"/>
</svg>
