<svg width="32" height="32" viewBox="0 0 32 32" fill="none" xmlns="http://www.w3.org/2000/svg">
<path d="M29.2627 12.2387C29.1789 11.9918 29.0246 11.7749 28.8189 11.6148C28.6133 11.4546 28.3652 11.3582 28.1053 11.3374L20.504 10.7334L17.2147 3.45202C17.1099 3.2175 16.9395 3.01831 16.7241 2.8785C16.5086 2.73868 16.2573 2.6642 16.0004 2.66406C15.7436 2.66392 15.4922 2.73812 15.2766 2.8777C15.0609 3.01728 14.8903 3.21628 14.7853 3.45069L11.496 10.7334L3.89466 11.3374C3.63927 11.3576 3.39511 11.451 3.1914 11.6063C2.98769 11.7617 2.83305 11.9724 2.74599 12.2134C2.65892 12.4543 2.64311 12.7153 2.70045 12.965C2.7578 13.2147 2.88586 13.4425 3.06933 13.6214L8.68666 19.0974L6.7 27.7C6.63967 27.9604 6.659 28.2329 6.75549 28.4822C6.85197 28.7315 7.02115 28.946 7.24106 29.0979C7.46098 29.2499 7.72149 29.3322 7.98877 29.3342C8.25606 29.3363 8.51779 29.2579 8.73999 29.1094L16 24.2694L23.26 29.1094C23.4871 29.2601 23.755 29.3378 24.0275 29.3318C24.3001 29.3258 24.5642 29.2365 24.7845 29.0759C25.0048 28.9153 25.1706 28.6911 25.2597 28.4334C25.3487 28.1758 25.3568 27.897 25.2827 27.6347L22.844 19.1014L28.892 13.6587C29.288 13.3014 29.4333 12.744 29.2627 12.2387Z" fill="#FFD08A"/>
</svg>
